# xmcd
#
# Track frame offsets:
#	150
#	17777
#	32489
#	50904
#	62794
#	77759
#	90183
#	107307
#	122544
#	139346
#	152286
#	175538
#	189603
#	206767
#	224282
#	242809
#	262171
#
# Disc length: 3619 seconds
#
# Revision: 0
# Processed by: cddbd v1.5.2PL0 Copyright (c) Steve Scherf et al.
# Submitted via: audiograbber 1.83.01
#
DISCID=e30e2111
DTITLE=Greyhound George - Delta Dog
DYEAR=2008
DGENRE=Blues
TTITLE0=Do That Thing (21st Century Bluesman)
TTITLE1=Diddy Wah Diddy
TTITLE2=Greyhound´s Blues
TTITLE3=Taxi Driver Blues
TTITLE4=I Wish
TTITLE5=Rattlesnake Rag
TTITLE6=Airplane Blues
TTITLE7=Matchbox Blues
TTITLE8=Mean Mistreater
TTITLE9=Hole In My Pocket 
TTITLE10=Laundromat
TTITLE11=Virtual Bluesman
TTITLE12=Wiggle Your  Tail
TTITLE13=What Can I Do When I Get Happy
TTITLE14=No Mo´
TTITLE15=Mystery Train
TTITLE16=Greyhound´s Lonesome Song
EXTD=
EXTT0=
EXTT1=
EXTT2=
EXTT3=
EXTT4=
EXTT5=
EXTT6=
EXTT7=
EXTT8=
EXTT9=
EXTT10=
EXTT11=
EXTT12=
EXTT13=
EXTT14=
EXTT15=
EXTT16=
PLAYORDER=
